<svg xmlns="http://www.w3.org/2000/svg" xmlns:xlink="http://www.w3.org/1999/xlink" width="500" zoomAndPan="magnify" viewBox="0 0 375 374.999991" height="500" preserveAspectRatio="xMidYMid meet" version="1.0"><defs><clipPath id="40c1a38ad6"><path d="M 0 0.21875 L 375 0.21875 L 375 374.46875 L 0 374.46875 Z M 0 0.21875 " clip-rule="nonzero"/></clipPath></defs><g clip-path="url(#40c1a38ad6)"><path fill="#efefef" d="M 187.5 274.40625 C 139.542969 274.40625 100.695312 235.5625 100.695312 187.710938 C 100.695312 139.753906 139.542969 100.910156 187.5 100.910156 C 235.351562 100.910156 274.195312 139.753906 274.195312 187.710938 C 274.195312 235.5625 235.351562 274.40625 187.5 274.40625 Z M 223.957031 138.667969 C 221.460938 136.933594 221.027344 133.460938 222.765625 131.074219 C 224.609375 128.683594 227.972656 128.144531 230.46875 129.988281 C 233.289062 132.15625 236 134.542969 238.605469 137.148438 C 241.210938 139.753906 243.488281 142.464844 245.65625 145.394531 C 247.394531 147.890625 246.851562 151.253906 244.355469 152.988281 C 241.96875 154.726562 238.605469 154.183594 236.761719 151.796875 C 235.023438 149.300781 232.964844 146.914062 230.902344 144.742188 C 228.730469 142.574219 226.453125 140.621094 223.957031 138.667969 Z M 245.222656 167.964844 C 244.246094 165.144531 245.765625 162.105469 248.585938 161.128906 C 251.410156 160.152344 254.554688 161.671875 255.53125 164.601562 C 256.726562 168.289062 257.703125 172.085938 258.351562 175.882812 C 258.894531 179.789062 259.222656 183.695312 259.222656 187.496094 C 259.222656 200.515625 255.75 213.101562 249.347656 223.953125 C 242.945312 234.800781 233.613281 244.023438 222.222656 250.316406 C 219.617188 251.835938 216.253906 250.859375 214.84375 248.148438 C 213.324219 245.542969 214.300781 242.289062 217.011719 240.769531 C 226.667969 235.453125 234.480469 227.640625 239.90625 218.417969 C 245.332031 209.304688 248.371094 198.5625 248.371094 187.496094 C 248.371094 184.128906 248.152344 180.875 247.609375 177.621094 C 247.070312 174.367188 246.199219 171.109375 245.222656 167.964844 Z M 374.34375 372.710938 C 347.433594 345.910156 320.632812 319 293.726562 292.09375 L 277.015625 275.382812 L 264.863281 263.339844 C 283.960938 243.808594 295.679688 217.117188 295.679688 187.710938 C 295.679688 157.765625 283.527344 130.746094 263.996094 111.214844 C 244.355469 91.578125 217.339844 79.53125 187.5 79.53125 C 157.554688 79.53125 130.535156 91.578125 111.003906 111.214844 C 91.367188 130.746094 79.320312 157.765625 79.320312 187.710938 C 79.320312 217.550781 91.367188 244.566406 111.003906 264.207031 C 130.535156 283.738281 157.554688 295.890625 187.5 295.890625 C 209.417969 295.890625 229.707031 289.378906 246.742188 278.203125 L 246.527344 278.421875 L 258.894531 290.789062 C 237.195312 305.871094 212.023438 313.140625 186.957031 313.03125 L 186.957031 313.140625 C 162.4375 313.140625 137.371094 305.871094 114.800781 289.8125 C 109.050781 285.691406 103.734375 281.242188 98.851562 276.25 C 73.898438 251.402344 61.960938 219.175781 62.179688 187.167969 L 62.070312 187.167969 C 61.960938 162.648438 69.230469 137.582031 85.398438 115.015625 C 89.414062 109.261719 93.96875 103.945312 98.960938 99.0625 C 123.808594 74.109375 156.035156 62.171875 188.042969 62.390625 L 188.042969 62.28125 C 212.457031 62.171875 237.519531 69.441406 260.199219 85.609375 C 265.839844 89.625 271.15625 94.179688 276.148438 99.171875 C 300.996094 124.019531 312.929688 156.246094 312.820312 188.253906 L 312.929688 188.253906 C 312.929688 212.667969 305.660156 237.730469 289.601562 260.410156 L 288.949219 261.277344 L 305.769531 278.203125 C 325.949219 251.835938 336.257812 220.152344 336.367188 188.253906 L 336.476562 188.253906 C 336.585938 157.113281 327.035156 125.863281 307.503906 99.390625 L 318.03125 88.863281 C 340.273438 118.050781 351.339844 152.882812 351.230469 187.710938 C 351.125 223.191406 339.511719 258.78125 316.292969 288.726562 L 333.21875 305.546875 C 338.644531 298.925781 343.417969 291.984375 347.761719 284.820312 C 365.988281 254.765625 374.886719 221.457031 374.886719 188.253906 L 374.996094 188.253906 C 374.996094 139.859375 356.222656 91.46875 319.113281 54.25 L 291.878906 81.484375 C 263.34375 53.273438 225.800781 38.953125 188.042969 38.734375 L 188.042969 38.628906 C 156.902344 38.519531 125.652344 48.066406 99.179688 67.707031 L 88.652344 57.179688 C 117.839844 34.9375 152.671875 23.871094 187.5 23.871094 L 187.5 23.980469 C 222.980469 24.085938 258.570312 35.699219 288.515625 58.808594 L 305.335938 41.992188 C 298.714844 36.566406 291.773438 31.683594 284.609375 27.34375 C 254.554688 9.222656 221.246094 0.324219 188.042969 0.21875 C 139.648438 0.21875 91.257812 18.878906 54.039062 56.097656 L 81.273438 83.222656 C 53.0625 111.867188 38.742188 149.410156 38.523438 187.167969 L 38.414062 187.167969 C 38.308594 218.199219 47.855469 249.449219 67.496094 276.035156 L 56.96875 286.558594 C 34.726562 257.261719 23.660156 222.542969 23.660156 187.710938 L 23.769531 187.710938 C 23.875 152.121094 35.488281 116.53125 58.597656 86.695312 L 41.78125 69.769531 C 36.355469 76.386719 31.472656 83.332031 27.132812 90.601562 C 9.011719 120.546875 0.113281 153.964844 0.00390625 187.167969 C 0.00390625 235.5625 18.667969 283.953125 55.886719 321.0625 L 83.011719 293.9375 C 111.65625 322.039062 149.199219 336.46875 186.957031 336.578125 L 186.957031 336.6875 C 217.988281 336.796875 249.238281 327.246094 275.820312 307.714844 L 286.347656 318.242188 C 257.050781 340.484375 222.328125 351.550781 187.5 351.445312 C 151.910156 351.335938 116.320312 339.726562 86.484375 316.503906 L 69.554688 333.433594 C 76.175781 338.855469 83.121094 343.632812 90.390625 347.972656 C 117.191406 364.246094 146.703125 373.144531 176.324219 374.773438 L 198.457031 374.773438 C 235.566406 372.601562 272.132812 359.253906 303.164062 335.058594 L 312.277344 344.171875 L 316.726562 348.515625 L 320.089844 351.984375 L 324.539062 356.433594 C 328.335938 360.230469 332.136719 364.03125 335.933594 367.828125 L 340.816406 372.710938 Z M 27.132812 90.492188 Z M 284.609375 27.34375 Z M 347.761719 284.820312 Z M 90.28125 347.972656 Z M 90.28125 347.972656 " fill-opacity="1" fill-rule="evenodd"/></g></svg>